HIERARCHY
ROOT Pelvis
{
	OFFSET 0.000000 0.000000 0.000000
	CHANNELS 6 Xposition Yposition Zposition Xrotation Yrotation Zrotation
	JOINT LeftUpLeg_virtual
	{
		OFFSET 0.000000 0.000000 0.000000
		CHANNELS 3 Xrotation Yrotation Zrotation
		JOINT LeftUpLeg
		{
			OFFSET 18.735201 -5.666702 -4.541200
			CHANNELS 3 Xrotation Yrotation Zrotation
			JOINT LeftLeg
			{
				OFFSET -0.021200 -31.938179 0.493100
				CHANNELS 3 Xrotation Yrotation Zrotation
				JOINT LeftFoot
				{
					OFFSET 0.021200 -31.938179 -4.336299
					CHANNELS 3 Xrotation Yrotation Zrotation
					JOINT LeftToeBase
					{
						OFFSET 0.943001 -26.722000 15.023500
						CHANNELS 3 Xrotation Yrotation Zrotation
						End Site
						{
							OFFSET 0 0 0
						}
					}
				}
			}
		}
	}
	JOINT RightUpLeg_virtual
	{
		OFFSET 0.000000 0.000000 0.000000
		CHANNELS 3 Xrotation Yrotation Zrotation
		JOINT RightUpLeg
		{
			OFFSET -18.735201 -5.666702 -4.541200
			CHANNELS 3 Xrotation Yrotation Zrotation
			JOINT RightLeg
			{
				OFFSET 0.018946 -31.938133 0.493100
				CHANNELS 3 Xrotation Yrotation Zrotation
				JOINT RightFoot
				{
					OFFSET -0.018946 -31.938126 -4.336299
					CHANNELS 3 Xrotation Yrotation Zrotation
					JOINT RightToeBase
					{
						OFFSET -0.943001 -26.722004 15.023500
						CHANNELS 3 Xrotation Yrotation Zrotation
						End Site
						{
							OFFSET 0 0 0
						}
					}
				}
			}
		}
	}
	JOINT Hips_virtual
	{
		OFFSET 0.000000 0.000000 0.000000
		CHANNELS 3 Xrotation Yrotation Zrotation
		JOINT Hips
		{
			OFFSET -0.000000 -0.000000 -0.000000
			CHANNELS 3 Xrotation Yrotation Zrotation
			JOINT Spine
			{
				OFFSET 0.000000 10.199997 -0.299500
				CHANNELS 3 Xrotation Yrotation Zrotation
				JOINT Spine1
				{
					OFFSET 0.000000 11.900002 -1.516600
					CHANNELS 3 Xrotation Yrotation Zrotation
					JOINT Spine2
					{
						OFFSET 0.000000 13.600006 -2.842500
						CHANNELS 3 Xrotation Yrotation Zrotation
						JOINT Neck_virtual
						{
							OFFSET 0.000000 0.000000 0.000000
							CHANNELS 3 Xrotation Yrotation Zrotation
							JOINT Neck
							{
								OFFSET 0.000000 9.624100 -2.890100
								CHANNELS 3 Xrotation Yrotation Zrotation
								JOINT Head
								{
									OFFSET 0.000000 14.068802 -1.351900
									CHANNELS 3 Xrotation Yrotation Zrotation
									End Site
									{
										OFFSET 0 0 0
									}
								}
							}
						}
						JOINT LeftShoulder_virtual
						{
							OFFSET 0.000000 0.000000 0.000000
							CHANNELS 3 Xrotation Yrotation Zrotation
							JOINT LeftShoulder
							{
								OFFSET 15.263000 10.923401 -0.547700
								CHANNELS 3 Xrotation Yrotation Zrotation
								JOINT LeftArm
								{
									OFFSET 25.438599 -2.830597 -13.032500
									CHANNELS 3 Xrotation Yrotation Zrotation
									JOINT LeftForeArm
									{
										OFFSET 29.960503 0.000000 0.000000
										CHANNELS 3 Xrotation Yrotation Zrotation
										JOINT LeftHand
										{
											OFFSET 27.849251 0.000000 0.000000
											CHANNELS 3 Xrotation Yrotation Zrotation
											End Site
											{
												OFFSET 0 0 0
											}
										}
									}
								}
							}
						}
						JOINT RightShoulder_virtual
						{
							OFFSET 0.000000 0.000000 0.000000
							CHANNELS 3 Xrotation Yrotation Zrotation
							JOINT RightShoulder
							{
								OFFSET -15.263000 10.923401 -0.547700
								CHANNELS 3 Xrotation Yrotation Zrotation
								JOINT RightArm
								{
									OFFSET -25.438599 -2.830597 -13.032500
									CHANNELS 3 Xrotation Yrotation Zrotation
									JOINT RightForeArm
									{
										OFFSET -29.960503 0.000000 0.000000
										CHANNELS 3 Xrotation Yrotation Zrotation
										JOINT RightHand
										{
											OFFSET -27.849251 0.000000 0.000000
											CHANNELS 3 Xrotation Yrotation Zrotation
											End Site
											{
												OFFSET 0 0 0
											}
										}
									}
								}
							}
						}
					}
				}
			}
		}
	}
}
MOTION
Frames: 13
Frame Time: 0.03333333
1.901311 87.156425 -7.391476 0.000000 0.000000 0.000000 4.972406 3.399358 -0.626347 7.905602 11.419047 14.732954 26.582444 -10.077295 4.063959 5.458227 -14.882578 -20.703978 0.000000 0.000000 0.000000 4.912053 4.639962 -1.864655 -34.772042 -6.640633 -3.857969 34.655123 -2.580341 5.837610 -9.973331 0.526069 -7.810831 0.000000 0.000000 0.000000 3.908531 4.709164 -2.110956 -0.790463 0.207664 -0.149834 6.039468 -0.550314 4.637890 4.220836 -0.790636 0.767906 0.000000 0.000000 0.000000 2.218978 1.195889 -0.854095 -2.489457 -2.301637 0.509581 0.000000 0.000000 0.000000 5.680665 0.238230 -1.794074 -7.147573 -6.730361 5.213004 -22.505695 -8.344733 -38.346881 -177.499609 -51.394052 179.238056 0.000000 0.000000 0.000000 1.566256 1.758821 -0.210009 6.912194 -4.693120 -2.330934 -19.642123 -14.399321 57.337703 179.741838 31.555197 -176.173009 0.000000 0.000000 0.000000 
1.669199 88.342896 -7.886295 0.000000 0.000000 0.000000 6.048452 4.661362 -0.896851 -3.735860 8.790890 18.506324 42.941809 -10.472710 5.162829 11.720646 -17.550965 -19.604509 0.000000 0.000000 0.000000 5.893507 6.215969 -2.008816 -32.502309 -7.104671 -3.444889 34.600949 -2.157384 4.308692 -7.889961 3.617269 -3.021332 0.000000 0.000000 0.000000 5.021704 5.508180 -2.089050 -0.725663 0.137630 -0.094151 7.442975 -0.354018 5.284963 4.623271 -0.912060 -0.244469 0.000000 0.000000 0.000000 2.265933 1.166039 -1.396214 -2.452724 -2.552713 -0.117088 0.000000 0.000000 0.000000 5.359255 0.080916 -2.675705 -5.444021 -4.696251 14.138307 -43.670037 -7.898483 -42.780357 179.712331 -56.983172 177.279787 0.000000 0.000000 0.000000 1.804873 1.597491 -1.304323 7.523704 -6.507501 -10.111025 -39.429859 -17.931470 60.573574 174.841614 36.165869 -174.348898 0.000000 0.000000 0.000000 
1.474351 89.160027 -8.308735 0.000000 0.000000 0.000000 7.113369 5.432562 -0.900151 -17.816965 6.958589 22.603726 60.468703 -10.401805 4.389489 17.344842 -18.357496 -16.777723 0.000000 0.000000 0.000000 6.644913 6.822120 -1.643666 -32.037334 -6.433746 -4.071820 38.236307 -2.137467 3.193557 -10.740344 6.120571 0.804515 0.000000 0.000000 0.000000 6.218872 5.591757 -1.345046 -0.666241 0.024334 0.006680 9.291567 0.279030 4.641432 4.888150 -1.054013 -1.041597 0.000000 0.000000 0.000000 2.360526 1.103274 -1.790803 -2.501616 -2.857199 -0.441840 0.000000 0.000000 0.000000 4.906911 -0.020745 -3.132671 -4.383087 -2.382204 22.949781 -61.220167 -6.867666 -44.395147 175.869858 -65.109618 174.812422 0.000000 0.000000 0.000000 1.953171 1.410094 -2.287976 7.917615 -8.172942 -17.039655 -54.057136 -23.661503 58.291662 169.295487 41.303506 -171.734834 0.000000 0.000000 0.000000 
1.225387 90.110069 -8.526588 0.000000 0.000000 0.000000 8.222173 5.251878 -0.741444 -31.801207 6.305408 26.576637 72.908690 -10.594418 1.740370 21.876162 -16.843229 -12.967108 0.000000 0.000000 0.000000 7.331425 6.180322 -1.022635 -32.229603 -5.848781 -5.672794 41.458808 -2.922527 2.677572 -14.349389 7.580631 4.173833 0.000000 0.000000 0.000000 7.624518 4.780079 -0.385866 -0.676378 -0.006058 0.061801 11.288473 1.142237 2.998339 4.985048 -1.223638 -1.368048 0.000000 0.000000 0.000000 2.125247 0.953395 -1.851235 -2.679967 -3.171542 -0.456623 0.000000 0.000000 0.000000 4.355682 -0.102763 -2.959869 -4.200269 -0.159873 29.071891 -71.842334 -6.817070 -43.819874 171.385798 -71.729281 171.924385 0.000000 0.000000 0.000000 1.560833 1.208695 -2.768407 8.310322 -8.901512 -21.005272 -61.259127 -27.662717 53.802804 163.363399 45.448478 -168.553332 0.000000 0.000000 0.000000 
0.920371 91.576752 -8.362461 0.000000 0.000000 0.000000 9.795693 3.723989 -0.768426 -42.266286 6.393580 28.742194 76.386309 -10.445543 -1.649013 23.562869 -12.477939 -8.488479 0.000000 0.000000 0.000000 8.755247 4.299751 -0.788675 -31.644133 -5.897959 -7.331788 40.502578 -3.314399 2.245797 -13.101541 9.451574 7.665508 0.000000 0.000000 0.000000 9.322191 3.496767 0.110780 -0.711471 0.049385 0.074671 13.025401 2.184578 1.341479 4.783040 -1.365260 -1.130120 0.000000 0.000000 0.000000 1.509467 0.748337 -1.610885 -3.055482 -3.503181 -0.157415 0.000000 0.000000 0.000000 3.762797 -0.147097 -2.210563 -4.641541 1.975609 30.772174 -72.547510 -8.265744 -42.825703 169.842175 -72.536752 171.629608 0.000000 0.000000 0.000000 0.393965 0.984123 -2.520720 8.755479 -8.560116 -21.328203 -59.062483 -28.857495 52.721465 157.460381 47.791110 -165.072859 0.000000 0.000000 0.000000 
0.684342 93.531029 -7.446667 0.000000 0.000000 0.000000 11.909493 1.429200 -1.218494 -47.743681 6.806842 27.996590 70.707027 -9.261398 -4.911968 23.048762 -5.751003 -3.563618 0.000000 0.000000 0.000000 10.902413 1.547294 -1.277304 -28.251727 -6.632146 -7.699459 33.860717 -2.887640 1.680508 -6.210037 12.556722 10.781234 0.000000 0.000000 0.000000 11.319704 2.165430 -0.453713 -0.728164 0.117803 0.068559 14.046235 3.407996 0.516240 4.387366 -1.407365 -0.442339 0.000000 0.000000 0.000000 0.521188 0.563750 -1.042754 -3.637187 -3.854020 0.401600 0.000000 0.000000 0.000000 3.229661 -0.143536 -1.086673 -5.330968 4.111020 27.042300 -62.888892 -10.426408 -42.488353 171.666054 -67.960901 174.009806 0.000000 0.000000 0.000000 -1.338067 0.763759 -1.691498 9.236082 -6.945157 -17.495912 -48.284315 -26.711162 56.407817 151.962174 48.381044 -161.536009 0.000000 0.000000 0.000000 
0.362374 95.014297 -6.604507 0.000000 0.000000 0.000000 14.162121 -0.902908 -2.223467 -49.691822 6.805767 24.355717 59.617368 -6.851910 -6.989794 18.891099 1.578341 1.201531 0.000000 0.000000 0.000000 13.336613 -0.463128 -2.314882 -20.915865 -8.244424 -5.879159 22.747767 -2.173317 0.979032 0.269574 15.668230 12.735811 0.000000 0.000000 0.000000 13.586693 0.877752 -2.065694 -0.760240 0.157973 0.022438 14.046894 4.832868 0.986633 3.962594 -1.290671 0.351666 0.000000 0.000000 0.000000 -0.696072 0.489224 -0.228852 -4.393867 -4.247967 1.093089 0.000000 0.000000 0.000000 2.836056 -0.003924 0.026437 -5.804252 6.107258 18.096931 -44.446250 -12.616215 -42.966159 173.806499 -61.826094 175.799548 0.000000 0.000000 0.000000 -3.213128 0.617457 -0.674255 9.196504 -4.910819 -10.562759 -32.209369 -20.718506 61.697276 147.880877 48.510203 -158.639039 0.000000 0.000000 0.000000 
0.045856 94.999039 -6.018982 0.000000 0.000000 0.000000 16.253308 -2.497302 -3.621126 -51.170145 5.730987 19.659373 48.685886 -4.268685 -7.379837 10.710103 7.371353 5.319324 0.000000 0.000000 0.000000 15.735340 -1.514239 -3.573975 -10.890950 -9.975095 -2.023673 11.859074 -1.698814 0.618714 -1.035208 17.047068 13.875154 0.000000 0.000000 0.000000 15.743239 -0.192419 -4.161890 -0.779546 0.131883 -0.027699 12.988974 6.395406 2.411621 3.631349 -0.978531 0.935252 0.000000 0.000000 0.000000 -1.642209 0.664288 0.550192 -5.212912 -4.716177 1.835649 0.000000 0.000000 0.000000 2.551342 0.349412 0.775276 -6.004401 7.982025 6.191579 -21.945401 -14.506080 -42.873244 175.332595 -57.229868 176.519532 0.000000 0.000000 0.000000 -4.465681 0.663071 0.101606 8.253989 -4.011419 -2.665404 -13.813511 -14.404242 64.905088 146.045004 48.774261 -156.788003 0.000000 0.000000 0.000000 
0.023542 93.238014 -5.669331 0.000000 0.000000 0.000000 17.659924 -2.740611 -4.934443 -54.924929 4.583865 16.667629 44.020023 -3.082504 -7.100915 1.949369 10.680665 7.439474 0.000000 0.000000 0.000000 17.450560 -2.054340 -4.707952 -1.969265 -11.578469 2.018519 6.221651 -2.333955 0.816705 -11.431515 15.629935 14.228407 0.000000 0.000000 0.000000 17.544447 -1.113465 -5.800590 -0.762197 0.053692 -0.131097 11.245587 7.903776 3.591631 3.497007 -0.447587 1.055762 0.000000 0.000000 0.000000 -2.116797 1.145066 1.133834 -5.932079 -5.186264 2.524660 0.000000 0.000000 0.000000 2.409116 0.939834 1.056845 -6.233617 9.636024 -5.411283 -1.992838 -15.381149 -41.574163 176.671531 -55.085431 176.719547 0.000000 0.000000 0.000000 -4.368854 1.018264 0.380031 6.660747 -5.206311 4.291777 4.177971 -10.939458 65.417332 146.915798 49.400972 -156.858491 0.000000 0.000000 0.000000 
0.164358 90.387329 -5.843975 0.000000 0.000000 0.000000 18.213613 -2.440215 -5.584588 -59.807035 4.460646 16.234356 46.134274 -3.378247 -6.929884 -8.024073 11.370910 7.397732 0.000000 0.000000 0.000000 18.333379 -2.143429 -5.250917 2.335954 -13.639037 4.184704 8.202582 -3.990310 0.960262 -25.010508 12.713908 13.304404 0.000000 0.000000 0.000000 18.917790 -1.994249 -6.195214 -0.806223 -0.034571 -0.209920 9.430558 9.364800 3.574856 3.583075 0.278216 0.726772 0.000000 0.000000 0.000000 -1.993164 1.843809 1.332531 -6.415712 -5.591093 3.042493 0.000000 0.000000 0.000000 2.249644 1.676058 0.938397 -6.696713 11.051679 -13.880538 11.957307 -15.017175 -39.351780 178.111990 -53.578210 177.089211 0.000000 0.000000 0.000000 -2.941362 1.685002 0.222892 4.898727 -8.648158 8.234337 18.617354 -10.513122 65.958741 151.108674 49.662439 -159.629362 0.000000 0.000000 0.000000 
0.564032 87.938316 -6.192474 0.000000 0.000000 0.000000 18.576866 -2.939059 -5.176210 -61.753461 4.805637 16.656830 49.127608 -4.236952 -6.393749 -19.229042 9.956301 5.375212 0.000000 0.000000 0.000000 19.006511 -3.031713 -4.986122 1.042346 -14.884944 4.121793 16.484947 -5.519828 0.373233 -33.694126 10.601980 11.734294 0.000000 0.000000 0.000000 19.754369 -3.094693 -5.069851 -0.871384 -0.029400 -0.214211 8.010144 10.701540 1.848729 3.929322 1.055131 0.236883 0.000000 0.000000 0.000000 -1.294006 2.573728 1.252086 -6.541279 -5.788697 3.361753 0.000000 0.000000 0.000000 2.168951 2.371554 0.744832 -7.570489 12.222788 -17.388437 18.500269 -13.748860 -37.688086 179.397009 -50.563604 177.593019 0.000000 0.000000 0.000000 -0.618486 2.462746 -0.108439 3.474377 -12.812943 8.962346 26.464546 -10.774269 67.834024 157.256158 48.614022 -164.403213 0.000000 0.000000 0.000000 
1.019164 87.091881 -6.632507 0.000000 0.000000 0.000000 19.161872 -5.130000 -3.590446 -57.963191 5.832678 15.792545 47.961670 -4.616162 -5.095251 -27.780254 8.187231 2.527650 0.000000 0.000000 0.000000 19.700788 -5.371173 -3.884810 -4.485212 -13.653648 2.687500 26.899175 -6.324999 -1.584855 -34.469147 9.948950 11.022342 0.000000 0.000000 0.000000 20.282264 -4.890052 -2.958005 -0.935313 0.037555 -0.145713 7.274773 11.779626 -1.107057 4.266096 1.697416 -0.067161 0.000000 0.000000 0.000000 -0.433442 3.086085 1.211521 -6.249204 -5.697259 3.444510 0.000000 0.000000 0.000000 2.129588 2.840865 0.770292 -8.656619 13.110213 -16.113185 17.919276 -12.745000 -38.115823 -179.766699 -45.623430 178.061283 0.000000 0.000000 0.000000 1.733929 3.079408 -0.175932 2.472908 -15.968929 7.159888 24.991305 -9.172334 68.562108 164.160359 46.171215 -170.047381 0.000000 0.000000 0.000000 
1.438923 88.037361 -7.060986 0.000000 0.000000 0.000000 20.213004 -9.368204 -1.444637 -48.991407 7.429342 12.825826 40.731806 -3.311802 -3.351060 -31.749619 6.926893 1.051274 0.000000 0.000000 0.000000 20.702571 -8.597256 -2.123970 -12.420734 -10.761823 1.243902 35.988571 -6.633977 -4.884591 -28.614813 10.702032 11.767342 0.000000 0.000000 0.000000 20.742099 -7.571698 -0.794689 -0.991193 0.095791 0.006526 7.072486 12.161690 -3.909175 4.164554 1.978799 0.156302 0.000000 0.000000 0.000000 0.264655 3.177488 1.473214 -5.533203 -5.298135 3.268811 0.000000 0.000000 0.000000 2.121521 2.881322 1.239251 -9.570912 13.292569 -10.919493 9.416239 -11.134672 -41.728771 -179.645013 -40.191439 178.573465 0.000000 0.000000 0.000000 3.053093 3.279232 0.373063 2.213010 -17.000684 4.050685 14.465719 -6.253655 65.171397 170.697274 43.085045 -175.170802 0.000000 0.000000 0.000000 
